<svg width="434" height="305" viewBox="0 0 434 305" fill="none" xmlns="http://www.w3.org/2000/svg">
<g clip-path="url(#clip0)">
<path d="M348.529 283.675C345.712 294.416 335.841 301.129 335.841 301.129C335.841 301.129 330.537 290.426 333.354 279.685C336.171 268.943 346.042 262.23 346.042 262.23C346.042 262.23 351.346 272.933 348.529 283.675Z" fill="#3F3D56"/>
<path d="M344.256 281.402C336.366 289.208 335.483 301.123 335.483 301.123C335.483 301.123 347.393 300.383 355.283 292.578C363.173 284.773 364.056 272.858 364.056 272.858C364.056 272.858 352.146 273.597 344.256 281.402Z" fill="#174C8F"/>
<path d="M58.3743 243.041H73.2333L109.85 228.694C109.85 228.694 135.853 218.067 133.73 238.259C131.608 258.451 127.893 285.551 127.893 285.551C127.893 285.551 116.218 280.237 109.85 281.832C103.482 283.426 107.727 249.418 107.727 249.418C107.727 249.418 55.7209 274.392 50.9449 271.204C46.1688 268.016 45.1074 245.698 45.1074 245.698L58.3743 243.041Z" fill="#2F2E41"/>
<path opacity="0.1" d="M58.3743 243.041H73.2333L109.85 228.694C109.85 228.694 135.853 218.067 133.73 238.259C131.608 258.451 127.893 285.551 127.893 285.551C127.893 285.551 116.218 280.237 109.85 281.832C103.482 283.426 107.727 249.418 107.727 249.418C107.727 249.418 55.7209 274.392 50.9449 271.204C46.1688 268.016 45.1074 245.698 45.1074 245.698L58.3743 243.041Z" fill="black"/>
<path d="M81.785 196.447L99.7674 222.318L141.691 257.388C141.691 257.388 180.43 266.422 175.123 272.798C169.817 279.175 137.445 266.422 137.445 266.422C137.445 266.422 89.1539 231.351 87.5619 228.694C85.9698 226.037 68.4575 201.063 68.4575 201.063L81.785 196.447Z" fill="#A0616A"/>
<path opacity="0.1" d="M81.785 196.447L99.7674 222.318L141.691 257.388C141.691 257.388 180.43 266.422 175.123 272.798C169.817 279.175 137.445 266.422 137.445 266.422C137.445 266.422 89.1539 231.351 87.5619 228.694C85.9698 226.037 68.4575 201.063 68.4575 201.063L81.785 196.447Z" fill="black"/>
<path d="M71.1105 175.557L82.7853 198.406C82.7853 198.406 80.132 209.565 75.8866 210.627C71.6411 211.69 53.5981 196.812 53.5981 196.812L71.1105 175.557Z" fill="#D0CDE1"/>
<path opacity="0.1" d="M71.1105 175.557L82.7853 198.406C82.7853 198.406 80.132 209.565 75.8866 210.627C71.6411 211.69 53.5981 196.812 53.5981 196.812L71.1105 175.557Z" fill="black"/>
<path d="M213.539 231.211L216.988 245.455C217.026 245.614 217.02 245.78 216.971 245.936L201.327 294.887C201.265 295.081 201.138 295.248 200.968 295.36C200.799 295.472 200.596 295.522 200.393 295.502C200.191 295.482 200.002 295.393 199.857 295.25C199.712 295.107 199.621 294.919 199.598 294.717L197.433 275.647C197.419 275.521 197.432 275.392 197.471 275.271L211.831 231.145C211.891 230.961 212.009 230.801 212.168 230.691C212.326 230.58 212.517 230.524 212.71 230.531C212.903 230.539 213.089 230.609 213.238 230.732C213.388 230.855 213.494 231.023 213.539 231.211Z" fill="#2F2E41"/>
<path d="M212.271 232.414L215.455 244.636L201.657 289.271L198.473 275.455L212.271 232.414Z" fill="#F2F2F2"/>
<path d="M142.752 298.835C143.283 300.43 197.942 298.304 198.473 297.773C198.936 297.107 199.327 296.395 199.641 295.647C200.139 294.584 200.596 293.522 200.596 293.522L198.473 276.316L144.344 274.392C144.344 274.392 142.991 288.973 142.715 295.647C142.646 297.332 142.646 298.517 142.752 298.835Z" fill="#2F2E41"/>
<path opacity="0.1" d="M191.574 278.643L192.635 293.522H168.755V278.643H191.574Z" fill="black"/>
<path opacity="0.1" d="M160.795 283.425L160.938 283.397L160.264 289.802H146.998V283.425H160.795Z" fill="black"/>
<path opacity="0.1" d="M142.752 298.835C143.283 300.43 197.942 298.304 198.473 297.773C198.936 297.107 199.327 296.395 199.64 295.647H142.715C142.646 297.332 142.646 298.517 142.752 298.835Z" fill="black"/>
<path d="M79.0709 168.118C92.2597 168.118 102.951 157.412 102.951 144.206C102.951 131 92.2597 120.294 79.0709 120.294C65.8821 120.294 55.1904 131 55.1904 144.206C55.1904 157.412 65.8821 168.118 79.0709 168.118Z" fill="#A0616A"/>
<path d="M77.4788 165.461C77.4788 165.461 69.5186 179.276 67.9266 186.716C66.3346 194.155 44.0462 171.837 44.0462 171.837L41.1274 164.132C41.1274 164.132 62.0892 154.302 60.4971 146.331C58.9051 138.361 77.4788 165.461 77.4788 165.461Z" fill="#A0616A"/>
<path d="M81.7239 206.908L103.482 235.602L155.488 274.392C155.488 274.392 193.166 282.363 184.675 288.208C176.184 294.053 151.773 282.894 151.773 282.894C151.773 282.894 99.2363 254.731 88.0921 243.041C76.9478 231.351 56.2515 211.69 56.2515 211.69L81.7239 206.908Z" fill="#A0616A"/>
<path d="M52.5368 251.543L58.905 261.639L96.9105 249.667C105.25 247.04 114.394 248.006 121.79 252.672C128.424 256.857 132.669 263.499 123.117 273.33C104.012 292.99 91.2762 282.363 91.2762 282.363C91.2762 282.363 27.0644 312.651 16.4508 297.773C5.8373 282.894 5.30664 275.455 5.30664 275.455C5.30664 275.455 46.1687 249.949 52.5368 251.543Z" fill="#2F2E41"/>
<path d="M132.139 286.614C132.139 286.614 149.12 297.773 128.954 303.086C108.789 308.4 93.9298 300.961 93.9298 300.961C93.9298 300.961 76.4175 300.961 76.4175 291.928C76.4175 282.894 82.2549 281.832 82.2549 281.832L100.298 284.488C100.298 284.488 122.056 278.643 132.139 286.614Z" fill="#D0CDE1"/>
<path d="M98.6608 138.191C100.286 138.916 101.898 139.775 103.665 139.986C105.432 140.196 107.444 139.578 108.281 138.005C108.732 137.156 108.784 136.156 108.805 135.194C108.869 132.276 108.658 129.122 106.811 126.864C105.636 125.427 103.921 124.521 102.704 123.119C101.833 122.114 101.252 120.896 100.628 119.722C98.262 115.272 94.759 110.996 89.8906 109.713C87.8577 109.178 85.7251 109.204 83.6232 109.234L71.3634 109.407C69.3794 109.435 67.3648 109.467 65.4656 110.042C61.5195 111.237 58.6463 114.56 56.0149 117.738C54.0462 120.115 52.0723 122.517 50.5948 125.228C48.4765 129.184 47.4053 133.617 47.4835 138.105C47.4671 139.256 47.6155 140.404 47.9242 141.513C48.2854 142.53 48.7329 143.514 49.2617 144.454C51.5609 148.976 52.926 154.624 50.3368 158.986C54.8346 157.146 59.2848 154.734 62.2518 150.882C63.5791 149.158 64.6201 147.141 66.3889 145.876C68.1578 144.611 71.04 144.502 72.175 146.358C72.5651 147.109 72.7659 147.944 72.7601 148.79C72.843 150.183 72.8407 151.63 73.4307 152.895C74.0206 154.159 75.4258 155.179 76.7675 154.801C79.078 154.149 78.8567 150.598 80.6364 148.986C81.9879 147.761 84.073 147.995 85.8093 147.439C87.8322 146.791 89.3502 145.036 90.2151 143.093C90.8725 141.617 90.863 137.753 92.107 136.954C93.667 135.951 97.2148 137.545 98.6608 138.191Z" fill="#2F2E41"/>
<path d="M39.2317 161.612C40.306 161.325 41.4371 161.328 42.5099 161.62C45.9165 162.536 53.553 164.96 55.1903 168.649C57.313 173.431 64.7425 180.871 64.7425 180.871C64.7425 180.871 74.8254 190.967 72.7027 197.875C70.5799 204.782 62.6198 212.753 62.6198 212.753C62.6198 212.753 64.7425 245.698 54.129 254.2C43.5154 262.702 39.27 256.857 39.27 264.828C39.27 272.798 6.36812 297.773 0 282.363C0 282.363 3.18406 253.669 2.12271 243.573C1.07666 233.622 2.60802 171.54 39.2317 161.612Z" fill="#D0CDE1"/>
<path d="M56.2516 175.025C56.2516 175.025 88.6228 198.937 82.7854 209.033C82.7854 209.033 63.1503 218.598 58.9049 218.067C54.6595 217.535 38.2086 198.937 33.9631 197.343C29.7177 195.749 27.595 167.055 56.2516 175.025Z" fill="#D0CDE1"/>
<path d="M200.88 122.148C215.359 122.148 227.096 110.395 227.096 95.8978C227.096 81.4001 215.359 69.6474 200.88 69.6474C186.401 69.6474 174.664 81.4001 174.664 95.8978C174.664 110.395 186.401 122.148 200.88 122.148Z" fill="#F2F2F2"/>
<path d="M417.41 61.8057H270.5V31.0244H417.41V61.8057ZM271.148 61.1577H416.763V31.6724H271.148V61.1577Z" fill="#3F3D56"/>
<path d="M406.732 37.1806H260.469V67.3139H406.732V37.1806Z" fill="#174C8F"/>
<path d="M168.01 8.42438C169.261 8.42438 170.275 7.4089 170.275 6.15625C170.275 4.9036 169.261 3.88812 168.01 3.88812C166.759 3.88812 165.745 4.9036 165.745 6.15625C165.745 7.4089 166.759 8.42438 168.01 8.42438Z" fill="#174C8F"/>
<path d="M175.776 8.42438C177.027 8.42438 178.041 7.4089 178.041 6.15625C178.041 4.9036 177.027 3.88812 175.776 3.88812C174.525 3.88812 173.511 4.9036 173.511 6.15625C173.511 7.4089 174.525 8.42438 175.776 8.42438Z" fill="#174C8F"/>
<path d="M183.542 8.42438C184.793 8.42438 185.807 7.4089 185.807 6.15625C185.807 4.9036 184.793 3.88812 183.542 3.88812C182.291 3.88812 181.277 4.9036 181.277 6.15625C181.277 7.4089 182.291 8.42438 183.542 8.42438Z" fill="#174C8F"/>
<path d="M434 177.56H161.538V0H434V177.56ZM162.185 176.912H433.353V0.648029H162.185V176.912Z" fill="#3F3D56"/>
<path d="M433.676 9.82898H161.861V10.477H433.676V9.82898Z" fill="#3F3D56"/>
<path d="M168.657 7.77636C168.145 7.77636 167.645 7.62434 167.219 7.33951C166.793 7.05469 166.461 6.64985 166.265 6.17621C166.069 5.70256 166.018 5.18137 166.118 4.67855C166.218 4.17573 166.465 3.71386 166.827 3.35135C167.189 2.98883 167.65 2.74196 168.152 2.64194C168.654 2.54192 169.175 2.59326 169.648 2.78945C170.121 2.98564 170.525 3.31788 170.81 3.74415C171.094 4.17042 171.246 4.67158 171.246 5.18425C171.245 5.87147 170.972 6.53033 170.487 7.01627C170.001 7.50221 169.343 7.77557 168.657 7.77636ZM168.657 3.24016C168.273 3.24016 167.898 3.35418 167.578 3.5678C167.259 3.78142 167.01 4.08505 166.863 4.44028C166.716 4.79552 166.678 5.1864 166.753 5.56352C166.828 5.94064 167.013 6.28704 167.284 6.55892C167.556 6.83081 167.902 7.01597 168.278 7.09098C168.655 7.16599 169.045 7.12749 169.4 6.98035C169.755 6.8332 170.058 6.58403 170.271 6.26432C170.485 5.94462 170.599 5.56875 170.599 5.18425C170.598 4.66883 170.393 4.17469 170.029 3.81023C169.665 3.44578 169.172 3.24076 168.657 3.24016Z" fill="#3F3D56"/>
<path d="M176.423 7.77636C175.911 7.77636 175.411 7.62434 174.985 7.33951C174.559 7.05469 174.227 6.64985 174.032 6.17621C173.836 5.70256 173.784 5.18137 173.884 4.67855C173.984 4.17573 174.231 3.71386 174.593 3.35135C174.955 2.98883 175.416 2.74196 175.918 2.64194C176.42 2.54192 176.941 2.59326 177.414 2.78945C177.887 2.98564 178.291 3.31788 178.576 3.74415C178.86 4.17042 179.012 4.67158 179.012 5.18425C179.011 5.87147 178.738 6.53033 178.253 7.01627C177.768 7.50221 177.11 7.77557 176.423 7.77636ZM176.423 3.24016C176.039 3.24016 175.664 3.35418 175.345 3.5678C175.025 3.78142 174.776 4.08505 174.629 4.44028C174.482 4.79552 174.444 5.1864 174.519 5.56352C174.594 5.94064 174.779 6.28704 175.05 6.55892C175.322 6.83081 175.668 7.01597 176.044 7.09098C176.421 7.16599 176.811 7.12749 177.166 6.98035C177.521 6.8332 177.824 6.58403 178.038 6.26432C178.251 5.94462 178.365 5.56875 178.365 5.18425C178.364 4.66883 178.159 4.17469 177.795 3.81023C177.431 3.44578 176.938 3.24076 176.423 3.24016Z" fill="#3F3D56"/>
<path d="M184.189 7.77636C183.677 7.77636 183.177 7.62434 182.751 7.33951C182.325 7.05469 181.994 6.64986 181.798 6.17621C181.602 5.70256 181.55 5.18137 181.65 4.67855C181.75 4.17573 181.997 3.71386 182.359 3.35135C182.721 2.98883 183.182 2.74196 183.684 2.64194C184.186 2.54192 184.707 2.59325 185.18 2.78944C185.653 2.98564 186.057 3.31787 186.342 3.74414C186.626 4.17041 186.778 4.67157 186.778 5.18424C186.777 5.87147 186.504 6.53032 186.019 7.01626C185.534 7.50221 184.876 7.77556 184.189 7.77636ZM184.189 3.24016C183.805 3.24016 183.43 3.35418 183.111 3.5678C182.791 3.78142 182.542 4.08504 182.396 4.44028C182.249 4.79551 182.21 5.1864 182.285 5.56352C182.36 5.94063 182.545 6.28704 182.816 6.55892C183.088 6.83081 183.434 7.01596 183.811 7.09098C184.187 7.16599 184.578 7.12749 184.932 6.98035C185.287 6.83321 185.59 6.58402 185.804 6.26432C186.017 5.94462 186.131 5.56875 186.131 5.18425C186.13 4.66883 185.925 4.17469 185.562 3.81023C185.198 3.44578 184.704 3.24076 184.189 3.24016Z" fill="#3F3D56"/>
<path d="M247.524 10.153H246.877V177.487H247.524V10.153Z" fill="#3F3D56"/>
<path d="M325.349 92.425H277.781V98.9053H325.349V92.425Z" fill="#F2F2F2"/>
<path d="M400.098 92.425H352.53V98.9053H400.098V92.425Z" fill="#F2F2F2"/>
<path d="M328.261 95.9892H280.046V88.8609H328.261V95.9892ZM280.694 95.3412H327.614V89.5089H280.694V95.3412Z" fill="#3F3D56"/>
<path d="M325.349 142.647H277.781V149.127H325.349V142.647Z" fill="#F2F2F2"/>
<path d="M328.261 146.211H280.046V139.083H328.261V146.211ZM280.694 145.563H327.614V139.731H280.694V145.563Z" fill="#3F3D56"/>
<path d="M400.26 116.888H277.943V123.368H400.26V116.888Z" fill="#F2F2F2"/>
<path d="M403.172 121.1H280.208V113.972H403.172V121.1ZM280.855 120.452H402.525V114.62H280.855V120.452Z" fill="#3F3D56"/>
<path d="M403.01 95.9892H354.795V88.8609H403.01V95.9892ZM355.443 95.3412H402.363V89.5089H355.443V95.3412Z" fill="#3F3D56"/>
<path d="M205.317 115.283C200.052 115.283 194.905 113.719 190.528 110.791C186.15 107.862 182.738 103.699 180.724 98.8286C178.709 93.9581 178.182 88.5989 179.209 83.4285C180.236 78.2581 182.771 73.5087 186.494 69.7811C190.217 66.0534 194.96 63.5148 200.123 62.4864C205.287 61.4579 210.639 61.9858 215.503 64.0032C220.367 66.0206 224.525 69.4369 227.45 73.8201C230.375 78.2034 231.936 83.3567 231.936 88.6284C231.928 95.6951 229.121 102.47 224.13 107.467C219.14 112.464 212.374 115.275 205.317 115.283ZM205.317 62.7819C200.211 62.7819 195.221 64.2978 190.976 67.1379C186.731 69.9779 183.422 74.0146 181.469 78.7374C179.515 83.4602 179.004 88.6571 180 93.6708C180.996 98.6846 183.454 103.29 187.064 106.905C190.674 110.519 195.274 112.981 200.281 113.978C205.288 114.976 210.478 114.464 215.195 112.507C219.911 110.551 223.943 107.238 226.779 102.988C229.615 98.7375 231.129 93.7404 231.129 88.6284C231.121 81.7759 228.399 75.2063 223.56 70.3608C218.721 65.5153 212.16 62.7897 205.317 62.7819Z" fill="#3F3D56"/>
<path d="M415.851 300.651H301.71V301.458H415.851V300.651Z" fill="#3F3D56"/>
</g>
<defs>
<clipPath id="clip0">
<rect width="434" height="305" fill="white"/>
</clipPath>
</defs>
</svg>
